/* XPM */
static char *c86c837a5f1f40aeda06bc8590b24c0bT02eW8GK8uQJc95i[] = {
/* columns rows colors chars-per-pixel */
"40 40 107 2 ",
"   c #2B6642",
".  c #26603D",
"X  c #296640",
"o  c #265F3D",
"O  c #254830",
"+  c #2D3F2C",
"@  c #2A5035",
"#  c #235A3A",
"$  c #1C4931",
"%  c #26402D",
"&  c #32432F",
"*  c #2B4D34",
"=  c #387B4F",
"-  c #448B5B",
";  c #35764C",
":  c #1D4D33",
">  c #584C34",
",  c #504A33",
"<  c #215337",
"1  c #3F8455",
"2  c #336D48",
"3  c #205236",
"4  c #443D2A",
"5  c #705037",
"6  c #5B543C",
"7  c #374733",
"8  c #755338",
"9  c #565038",
"0  c #2F5439",
"q  c #5E5239",
"w  c #815D41",
"e  c #3E4D38",
"r  c #64563D",
"t  c #233F2D",
"y  c #3A7D51",
"u  c #1E4F34",
"i  c #203B2A",
"p  c #916B4E",
"a  c #9D7658",
"s  c #8D684B",
"d  c #685F46",
"f  c #7C593D",
"g  c #554F37",
"h  c #363928",
"j  c #6B4C35",
"k  c #3C3D2B",
"l  c #805E44",
"z  c #775F44",
"x  c #364A32",
"c  c #52563F",
"v  c #8B674A",
"b  c #4B4932",
"n  c #615941",
"m  c #876246",
"M  c #404631",
"N  c #3D5339",
"B  c #36714C",
"V  c #306846",
"C  c #3E4B33",
"Z  c #7F6348",
"A  c #245639",
"S  c #5B573F",
"D  c #987154",
"F  c #876C51",
"G  c #43553C",
"H  c #615C44",
"J  c #695C43",
"K  c #18422E",
"L  c #5B553E",
"P  c #254C32",
"I  c #78573F",
"U  c #343D2B",
"Y  c #524F37",
"T  c #4B533D",
"R  c #8B6E52",
"E  c #215036",
"W  c #4E5840",
"Q  c #418657",
"!  c #275C3D",
"~  c #509B66",
"^  c #4F4A34",
"/  c #4A9260",
"(  c #967053",
")  c #725A40",
"_  c #534831",
"`  c #6A4A32",
"'  c #215538",
"]  c #2F3F2B",
"[  c #5D4730",
"{  c #4C513B",
"}  c #2E6D45",
"|  c #685036",
" . c #856145",
".. c #33432F",
"X. c #3B4530",
"o. c #594C34",
"O. c #695A41",
"+. c #84694D",
"@. c #75654B",
"#. c #1C4831",
"$. c #235939",
"%. c #785E43",
"&. c #65573E",
"*. c #2F6F46",
"=. c #35764B",
"-. c #448B5A",
";. c white",
/* pixels */
"  . X o O + @ # # $ % & @ # # * @ . = - - ; o $ : # * & @ # $ % > , @ # # $ < 1 ",
"2 3 # O 4 5 6 7 & & > 8 , & & > 9 0 # # # # * & & & q w 6 e e r w w 6 7 & t < = ",
"y u i 4 5 p a s w w w w w w w w p d e 7 & & > 8 f w p a a a a a a a a s w g @ . ",
"; u h j p a a a a a a a a a a a a a a s w w w w p a a a a a a a a a a a a s g @ ",
"X u k l a a a a a a a a a a a a a a a a a a a a a a a a a a a a a a a a a a z x ",
"o * q p a a a a a a a a a a a a a a a a a a a a a a a a a a a a a a a a a a c < ",
"* > v a a a a a a a a a a a a a a a a a a a a a a a a a a a a a a a a a a a c < ",
"b f p a a a a a a a a a a a a a a a a a a a a a a a a a a a a a a a a a a a n @ ",
"b v a a a a a a a a a a a a a a a a a a a a a a a a a a a a a a a a a a a a m M ",
"b v a a a a a a a a a a a a a a a a a a a a a a a a a a a a a a a a a a a a z N ",
"b v a a a a a a a a a a a a a a a a a a a a a a a a a a a a a a a a a a a a c B ",
"b v a a a a a a a a a a a a a a a a a a a a a a a a a a a a a a a a a a a a c V ",
"b v a a a a a a a a a a a a a a a a a a a a a a a a a a a a a a a a a a a a c < ",
"b v a a a a a a a a a a a a a a a a a a a a a a a a a a a a a a a a a a a a c < ",
"b v a a a a a a a a a a a a a a a a a a a a a a a a a a a a a a a a a a a a d 0 ",
"C Z a a a a a a a a a a a a a a a a a a a a a a a a a a a a a a a a a a a a a c ",
"A S D a a a a a a a a a a a a a a a a a a a a a a a a a a a a a a a a a a a a c ",
"2 C Z a a a a a a a a a a a a a a a a a a a a a a a a a a a a a a a a a a a F G ",
"y u H a a a a a a a a a a a a a a a a a a a a a a a a a a a a a a a a a a a c < ",
"; u H a a a a a a a a a a a a a a a a a a a a a a a a a a a a a a a a a a a c < ",
"# O J a a a a a a a a a a a a a a a a a a a a a a a a a a a a a a a a a a a c < ",
"K k l a a a a a a a a a a a a a a a a a a a a a a a a a a a a a a a a a a a L P ",
"u b v a a a a a a a a a a a a a a a a a a a a a a a a a a a a a a a a a a a I U ",
"u b v a a a a a a a a a a a a a a a a a a a a a a a a a a a a a a a a a a a m M ",
"* > v a a a a a a a a a a a a a a a a a a a a a a a a a a a a a a a a a a a m M ",
"b f p a a a a a a a a a a a a a a a a a a a a a a a a a a a a a a a a a a a z x ",
"Y p a a a a a a a a a a a a a a a a a a a a a a a a a a a a a a a a a a a a c < ",
"T R a a a a a a a a a a a a a a a a a a a a a a a a a a a a a a a a a a a a c < ",
"E W R a a a a a a a a a a a a a a a a a a a a a a a a a a a a a a a a a a a c < ",
"Q ! W R a a a a a a a a a a a a a a a a a a a a a a a a a a a a a a a a a a n @ ",
"~ y u H a a a a a a a a a a a a a a a a a a a a a a a a a a a a a a a a a a s ^ ",
"~ y u S D a a a a a a a a a a a a a a a a a a a a a a a a a a a a a a a a a a I ",
"/ ; u b v a a a a a a a a a a a a a a a a a a a a a a a a a a a a a a a a a ( ) ",
"; o O _ v a a a a a a a a a a a a a a a a a a a a a a a a a a a a a a a a a z x ",
"o O 4 ` v a a a a a a a a a a a a a a a a a a a a a a a a a a a a a a a a a c < ",
"' ] [ 8 v a a a a a a a a a a a a a a a a a a a a a a a a a a a a a a a a ( { < ",
"} ' C |  .D a a a a a a a a a a a a a a a a a a a a a a a a a a a a a a ( ) ..< ",
"Q } u X.o.O.+.D a a a a a a a a a F @.@.@.@.R a a a a a a F @.@.@.@.R ( ) x #.$.",
"~ y ' #.#.#.C %.D F @.@.@.R F @.@.G #.#.#.#.W R a F @.@.@.G #.#.#.#.W &.x $.*.=.",
"~ y *.=.=.} ' C O.G #.#.#.W G #.K < *.=.=.} ' W @.G #.#.K < *.=.=.} ' #.$.*.-.~ "
};
