/* XPM */
static char *_68f426b065d434cb0f82c1e18344c75NC0VmSzyS67cQffi[] = {
/* columns rows colors chars-per-pixel */
"40 40 194 2 ",
"   c #1D140D",
".  c #22170F",
"X  c #251A11",
"o  c #2A1D13",
"O  c #231D1D",
"+  c #2D2117",
"@  c #342216",
"#  c #392617",
"$  c #342519",
"%  c #3B2719",
"&  c #37291E",
"*  c #3B291B",
"=  c #2A272D",
"-  c #3D2D21",
";  c #342D2C",
":  c #382C28",
">  c #3E312D",
",  c #383E2B",
"<  c #242734",
"1  c #34353D",
"2  c #442C1B",
"3  c #4A2F1C",
"4  c #4C321E",
"5  c #50341F",
"6  c #422F21",
"7  c #443326",
"8  c #47362B",
"9  c #4C3A2D",
"0  c #523621",
"q  c #553923",
"w  c #533E2E",
"e  c #5B3D28",
"r  c #433631",
"t  c #463933",
"y  c #4D3D33",
"u  c #473F39",
"i  c #503E35",
"p  c #1E4831",
"a  c #2A422D",
"s  c #37442F",
"d  c #294530",
"f  c #244C33",
"g  c #2D4D34",
"h  c #354630",
"j  c #384731",
"k  c #334E35",
"l  c #3C4A33",
"z  c #255336",
"x  c #2A5237",
"c  c #265538",
"v  c #2C5439",
"b  c #265A3A",
"n  c #295C3C",
"m  c #325136",
"M  c #3A5439",
"N  c #27613E",
"B  c #28643F",
"V  c #45432D",
"C  c #56402F",
"Z  c #5F402B",
"A  c #484332",
"S  c #444C35",
"D  c #4D4C34",
"F  c #554333",
"G  c #5B4433",
"H  c #534D35",
"J  c #594739",
"K  c #5E493C",
"L  c #465037",
"P  c #445339",
"I  c #4A553D",
"U  c #4B583F",
"Y  c #5A5037",
"T  c #555239",
"R  c #5D563D",
"E  c #5A583F",
"W  c #63422C",
"Q  c #674833",
"!  c #624A36",
"~  c #624B3C",
"^  c #694E3B",
"/  c #655037",
"(  c #63573E",
")  c #6B513C",
"_  c #71523D",
"`  c #7B543D",
"'  c #76593E",
"]  c #7E583F",
"[  c #1A2B4B",
"{  c #343541",
"}  c #3D3B45",
"|  c #1C3461",
" . c #3C4659",
".. c #2C6642",
"X. c #2E6B44",
"o. c #366545",
"O. c #316E47",
"+. c #34734A",
"@. c #38794F",
"#. c #3B7E51",
"$. c #254477",
"%. c #3F5577",
"&. c #4E5840",
"*. c #5A5045",
"=. c #555A41",
"-. c #5A5A41",
";. c #684F40",
":. c #6D5442",
">. c #695546",
",. c #645D43",
"<. c #6B5C42",
"1. c #725641",
"2. c #755A41",
"3. c #7C5D43",
"4. c #7B5D48",
"5. c #685A52",
"6. c #696147",
"7. c #6F6349",
"8. c #736045",
"9. c #7B6045",
"0. c #716449",
"q. c #7D634A",
"w. c #7F694E",
"e. c #736154",
"r. c #796657",
"t. c #6A6566",
"y. c #706D75",
"u. c #825D43",
"i. c #836246",
"p. c #85654A",
"a. c #84644B",
"s. c #89664B",
"d. c #826B4F",
"f. c #8C6A4E",
"g. c #92674C",
"h. c #926A4D",
"j. c #866952",
"k. c #8E6C51",
"l. c #926E52",
"z. c #986C51",
"x. c #8D7155",
"c. c #89715B",
"v. c #957155",
"b. c #967154",
"n. c #997355",
"m. c #997356",
"M. c #9B7456",
"N. c #9C7557",
"B. c #9D7658",
"V. c #9E795E",
"C. c #A8785B",
"Z. c #8B7866",
"A. c #967B63",
"S. c #967F68",
"D. c #917D79",
"F. c #3E8255",
"G. c #438959",
"H. c #4C9562",
"J. c #9C846B",
"K. c #98836C",
"L. c #93807F",
"P. c #A9886D",
"I. c #AD896C",
"U. c #A58B72",
"Y. c #AF8A70",
"T. c #B08B71",
"R. c #A7967E",
"E. c #AE967B",
"W. c #B39174",
"Q. c #B3997D",
"!. c #2A4B80",
"~. c #2D518E",
"^. c #395889",
"/. c #305B9D",
"(. c #305CA0",
"). c #586A87",
"_. c #466392",
"`. c #49679A",
"'. c #70798A",
"]. c #667894",
"[. c #486AA2",
"{. c #5171A4",
"}. c #837E89",
"|. c #798098",
" X c #8A8589",
".X c #9E9487",
"XX c #888A9A",
"oX c #AB9980",
"OX c #B39D82",
"+X c #BDA386",
"@X c #BAA589",
"#X c #BFAA8D",
"$X c #858EA7",
"%X c #C1AC8F",
/* pixels */
"..N N b g h g c c f a h g c c g x n +.F.F.+.n f f c k l m c f h H H m c c p c #.",
"O.c c g V / R S l l H / H l l H T M n n n n g h j l R 2.R I I ( 3.3.R S l d c +.",
"+.z a V ) s.l.p.3.3.3.u.3.3.3.u.p.,.I l l l H ) ' 3.f.b.b.b.b.b.n.n.b.p.2.T m n ",
"+.z , ^ s.n.N.M.n.n.n.n.n.n.n.n.M.b.l.p.3.3.3.i.f.n.M.N.B.B.B.B.B.B.N.M.b.p.T m ",
"B f V 3.n.N.B.B.B.B.B.B.N.M.n.n.n.M.M.n.b.b.b.n.M.N.B.B.B.B.B.B.B.B.B.B.N.b.<.l ",
"n k R f.M.B.B.B.B.B.B.B.f.) G F F G 2.4.^ G 1.k.M.B.B.B.B.B.B.B.B.B.B.B.B.b.-.x ",
"k Y i.n.N.B.B.B.B.B.B.B.4.7 $ + @ $ 9 w 6 o 7 ! 2.f.b.B.B.B.B.B.B.B.B.B.B.b.=.x ",
"D ' h.M.B.B.B.B.B.B.B.B.2.$ o @ * @ @ # @   X + & ! p.n.N.B.B.B.B.B.B.B.B.b.,.m ",
"H i.n.N.B.B.B.B.B.B.B.B.2.$   o 3 4 % % 2 * # @ @ & G s.n.B.B.B.B.B.B.B.B.n.9.S ",
"H p.M.B.B.B.B.B.B.B.M.p.G + X # 4 0 4 4 0 5 4 4 2 o 7 4.b.B.B.B.B.B.B.B.B.n.8.P ",
"H p.M.B.B.B.B.B.B.n.s.G * @ * 4 0 q 0 0 0 q q q 4 o & ^ f.n.B.B.B.B.B.B.B.b.-.o.",
"H p.M.B.B.B.B.B.B.l.G * @ 2 4 0 q q 4 4 0 q q q 0 2 @ - 2.l.B.B.B.B.B.B.B.b.=.o.",
"H p.M.B.B.B.B.B.B.f.7 # * 4 q 0 4 4 2 2 3 0 q q q 4 @ o ^ f.B.B.B.B.B.B.B.b.=.v ",
"H p.M.B.B.B.B.B.B.s.- # 2 0 q 5 4 e W W W Q W q q 0 # X ! f.B.B.B.B.B.B.B.b.=.x ",
"H p.M.B.B.B.B.B.B.s.- # 3 q q 0 e ` s.g.g.h.` W q q # o ! f.B.B.B.B.B.B.B.b.6.M ",
"S 9.n.B.B.B.B.B.B.s.- # 3 q 5 Z ` z.C.C.C.C.z.] e 0 # o ! f.B.B.B.B.B.B.B.N.x.=.",
"v -.k.N.B.B.B.B.B.s.- @ 2 q W Q _ B.I.W.I.f.s.u.e 2 % 8 3.l.B.B.B.B.B.B.B.B.b.-.",
"O.P q.n.B.B.B.B.B.f.w * # 0 3._ ! A.E.+XE.:.4.s.1.- - ! f.n.B.B.B.B.B.B.B.M.w.I ",
"+.v ,.b.B.B.B.B.B.b.4.8 # q x.q.;.S.OX%XOX>.r.S.S.A 9 2.b.B.B.B.B.B.B.B.B.b.-.v ",
"O.v ,.b.B.B.B.B.B.N.l.C - ^ J.J.K.E.@X%X@XK.U.E.P.F 9 2.b.B.B.B.B.B.B.B.B.b.=.c ",
"b g <.b.B.B.B.B.B.B.M._ w G x.U.OX@X#X%X#XOXQ.U.d.F ! p.n.B.B.B.B.B.B.B.B.b.=.z ",
"p s 3.n.B.B.B.B.B.B.N.k.) 7 ) A.Q.+X+X+X+X+XW.k.w F 2.b.M.B.B.B.B.B.B.B.B.b.-.g ",
"f D p.M.B.B.B.B.B.B.B.M.2.& 6 _ V.I.T.T.Y.I.l.W + G p.M.B.B.B.B.B.B.B.B.B.n.2.s ",
"f D p.M.B.B.B.B.B.B.B.B.2.$ @ q 3.Z.D.L.D.c.^ 3 . C p.B.B.B.B.B.B.B.B.B.B.n.4.S ",
"k Y s.M.B.B.B.B.B.B.N.s.) y F K ) y.}.XX Xe.) K y F 1.l.M.B.B.B.B.B.B.B.B.n.9.S ",
"D ' h.M.B.B.B.B.B.B.n.^ F e.K.c.5.y.|.$XXXt.r.Z.Z.J G p.n.B.B.B.B.B.B.B.B.n.2.l ",
"T p.n.N.B.B.B.B.B.B.n.G y Z.oX X).`.`.{.{._.'..XR.*.F 3.b.B.B.B.B.B.B.B.B.b.-.x ",
"I w.M.B.B.B.B.B.B.B.n.^ y *.y.].[./.$.$.~.(.{.].t.u F p.n.B.B.B.B.B.B.B.B.b.=.c ",
"v =.d.M.B.B.B.B.B.M.l.:.9 ;  .%.^.$.[ [ | !.^.%.1 ; F 4.l.M.B.B.B.B.B.B.B.b.=.x ",
"#.o.=.d.M.B.B.B.B.b.3.~ r O = } } < = = < { } 1 O : y :.s.b.B.B.B.B.B.B.B.b.,.m ",
"H.@.v ,.b.B.B.B.B.l.1.K y > > t t > r r > r t r : r i K p.b.B.B.B.B.B.B.B.M.p.T ",
"H.@.v E l.N.B.B.B.b.q.^ J y y y y y y y y y y y y y J :.f.n.B.B.B.B.B.B.B.N.b.2.",
"G.+.z H p.M.B.B.B.M.l.3.;.~ ~ ~ ~ ~ ~ ~ ~ ~ K K K ~ :.p.b.M.B.B.B.B.B.B.B.M.k.2.",
"+.n g H p.M.B.B.B.N.M.l.s.s.s.s.s.s.s.s.p.s.p.p.p.p.f.b.M.B.B.B.B.B.B.B.B.n.8.S ",
"n g V / s.M.B.B.B.B.B.M.b.b.b.b.b.b.b.b.b.b.b.b.b.b.n.M.B.B.B.B.B.B.B.B.B.b.-.x ",
"c h F _ s.M.B.B.B.B.B.B.B.B.B.B.B.B.B.B.B.B.B.B.B.B.B.B.B.B.B.B.B.B.B.B.M.f.I z ",
"X.v l / 3.l.n.N.B.B.B.B.B.B.B.B.B.M.M.M.M.M.M.B.B.B.B.B.B.M.M.M.M.M.M.M.f.<.l z ",
"F.X.z l H ,.q.l.M.M.M.M.n.M.M.n.b.d.0.7.7.0.j.M.B.M.M.M.b.d.0.7.7.0.d.f.<.l f b ",
"H.@.b f f g P 2.f.d.0.7.0.d.w.0.6.U v x x v =.d.b.d.0.7.6.U v x x v U R M n X.+.",
"H.#.X.O.O...v L ,.I g f g &.I g f c ..O.O...v =.7.U g f f c ..O.O...c f b X.G.H."
};
