/* XPM */
static char *bef7d93f3bd04973fe70bddce49273ccNfUrhq8kRyrz5xjZ[] = {
/* columns rows colors chars-per-pixel */
"40 40 191 2 ",
"   c #24140F",
".  c #271712",
"X  c #2B1B17",
"o  c #2D1C14",
"O  c #301E16",
"+  c #2F211D",
"@  c #34241D",
"#  c #3C271D",
"$  c #2B1F20",
"%  c #2C2020",
"&  c #382721",
"*  c #382A26",
"=  c #383E2B",
"-  c #242A3E",
";  c #362D33",
":  c #3B3234",
">  c #373038",
",  c #3D353B",
"<  c #432C1F",
"1  c #452E21",
"2  c #412F28",
"3  c #4B3224",
"4  c #43322C",
"5  c #49352B",
"6  c #503726",
"7  c #523B2D",
"8  c #5A3E2C",
"9  c #4D3B32",
"0  c #41383A",
"q  c #473A38",
"w  c #523D32",
"e  c #503F3A",
"r  c #1E4831",
"t  c #2A422D",
"y  c #37442F",
"u  c #294530",
"i  c #244C33",
"p  c #2D4D34",
"a  c #354630",
"s  c #384731",
"d  c #334E35",
"f  c #3C4A33",
"g  c #255336",
"h  c #2A5237",
"j  c #265538",
"k  c #2C5439",
"l  c #265A3A",
"z  c #295C3C",
"x  c #325136",
"c  c #3A5439",
"v  c #27623E",
"b  c #45432D",
"n  c #5D402C",
"m  c #434430",
"M  c #444C35",
"N  c #4D4C34",
"B  c #544730",
"V  c #5A4233",
"C  c #534D35",
"Z  c #544239",
"A  c #5A463B",
"S  c #5D483C",
"D  c #465037",
"F  c #445339",
"G  c #4A553D",
"H  c #4B583F",
"J  c #5A5037",
"K  c #555239",
"L  c #5D563D",
"P  c #5A583F",
"I  c #654A36",
"U  c #624B3D",
"Y  c #704F35",
"T  c #655037",
"R  c #63573E",
"E  c #6F503B",
"W  c #715036",
"Q  c #755339",
"!  c #76593E",
"~  c #2D3449",
"^  c #363E55",
"/  c #423E46",
"(  c #3D465F",
")  c #2C6642",
"_  c #2E6B44",
"`  c #366545",
"'  c #316E47",
"]  c #34734A",
"[  c #38794F",
"{  c #3B7E51",
"}  c #3E4861",
"|  c #4B4144",
" . c #554644",
".. c #5B4C47",
"X. c #574A4A",
"o. c #4E5840",
"O. c #555A41",
"+. c #5A5A41",
"@. c #464553",
"#. c #474A59",
"$. c #4D4C5B",
"%. c #564E55",
"&. c #585057",
"*. c #5B535B",
"=. c #624E42",
"-. c #645D43",
";. c #6B5C42",
":. c #6A5448",
">. c #775945",
",. c #755A44",
"<. c #7D5D44",
"1. c #7A5D48",
"2. c #6A5A55",
"3. c #696147",
"4. c #6F6349",
"5. c #776247",
"6. c #7B6045",
"7. c #716449",
"8. c #7F694E",
"9. c #454C64",
"0. c #464F65",
"q. c #475068",
"w. c #4A536B",
"e. c #5B5761",
"r. c #5D5864",
"t. c #53586A",
"y. c #5C5B69",
"u. c #4A5571",
"i. c #4D5875",
"p. c #4F5B78",
"a. c #565D73",
"s. c #5B5E73",
"d. c #585F78",
"f. c #5C647E",
"g. c #726A6E",
"h. c #62667C",
"j. c #6C6E7E",
"k. c #746F76",
"l. c #815F44",
"z. c #836246",
"x. c #84644B",
"c. c #8A664A",
"v. c #826B4F",
"b. c #8E6A4F",
"n. c #906B4D",
"m. c #846C50",
"M. c #8D6A50",
"N. c #846D5C",
"B. c #916E52",
"V. c #8E7053",
"C. c #947255",
"Z. c #9A7456",
"A. c #9D7658",
"S. c #847163",
"D. c #8A7667",
"F. c #3E8255",
"G. c #438959",
"H. c #4C9562",
"J. c #8F847F",
"K. c #90857F",
"L. c #5C6683",
"P. c #5D6887",
"I. c #5E6A8B",
"U. c #646A83",
"Y. c #636D8A",
"T. c #65708F",
"R. c #7B7E8B",
"E. c #616E90",
"W. c #667395",
"Q. c #677598",
"!. c #7C8193",
"~. c #7F8599",
"^. c #978B83",
"/. c #948C88",
"(. c #9B928D",
"). c #8B8A90",
"_. c #959497",
"`. c #989799",
"'. c #828DA5",
"]. c #828FA9",
"[. c #8991A2",
"{. c #8590AA",
"}. c #9299A6",
"|. c #969EAB",
" X c #A3A4AA",
".X c #A9A8AA",
"XX c #ADAFB4",
"oX c #ABB2BD",
"OX c #ADB5C2",
"+X c #B5BCC5",
"@X c #B6BEC8",
/* pixels */
") v v l p a p j j i t a p j j p h z ] F.F.] z i i j d f x j i a C C x j j r j { ",
"' j j p b T L M f f C T C f f C K c z z z z p a s f L ,.L G G R <.<.L M f u j ] ",
"] g t b E c.B.x.<.<.<.l.<.<.<.l.x.-.G f f f C E ! <.b.C.C.C.C.C.Z.Z.C.x.,.K x z ",
"] g = I c.Z.Z.Z.Z.Z.Z.Z.Z.Z.Z.Z.Z.C.B.x.<.<.<.z.b.Z.Z.Z.A.Z.Z.A.A.A.Z.Z.C.x.K x ",
"v i m <.Z.Z.A.A.A.A.A.A.A.A.A.A.A.A.Z.Z.Z.Z.Z.Z.Z.Z.A.A.A.A.A.A.A.A.A.A.Z.C.;.f ",
"z d L b.Z.A.A.A.A.A.A.A.A.A.A.A.A.A.A.A.A.A.A.A.A.A.A.A.A.A.A.A.A.A.A.A.A.C.+.h ",
"d J z.Z.Z.A.A.A.C.z.<.<.<.<.<.<.<.<.<.<.<.<.<.<.<.<.<.<.<.<.l.b.Z.A.A.A.A.C.O.h ",
"N ! n.Z.A.A.A.A.c.8 # # # # # # # # # # # # # # # # # # # # 1 Q Z.A.A.A.A.C.-.x ",
"C z.Z.Z.A.A.Z.z.I 1 @ ; > > * O o o o o o o o o o & ; > ; * @ 8 ,.b.A.A.A.Z.5.M ",
"C x.Z.A.A.A.B.8 @ < e y.L.L.&.5 3 3 3 3 3 3 3 3 3 | s.L.f.%.3 # < ,.A.A.A.Z.5.F ",
"C x.Z.A.A.A.b.3 o 3 :.!.{.{.k.I n n n n n n n n n 2.~.{.'.g.V # O E A.A.A.C.+.` ",
"C x.Z.A.A.A.b.3 o 8 N. XOXOX/.,.W W W W W W W W W S..XOXoXK.E < O E A.A.A.C.O.` ",
"C x.Z.A.A.A.b.3 O n N..X@X@X(.<.Q Q Q Q Q Q Q Q Q D.XX@X+X^.Q 1 O E Z.A.A.C.O.k ",
"C x.Z.A.A.A.b.3 o n N..X@X@X(.<.Q Q Q Q Q Q Q Q Q D.XX@X+X^.Q 1 O E Z.A.A.C.O.h ",
"C x.Z.A.A.A.b.3 o n N..X@X@X(.<.Q Q Q Q Q Q Q Q Q D.XX@X+X^.Q 1 O E Z.A.A.C.3.c ",
"M 5.Z.A.A.A.b.3 O n N..X@X@X(.<.Q Q Q Q Q Q Q Q Q D.XX@X+X^.Q 1 O E Z.A.A.Z.V.O.",
"k +.M.Z.A.A.b.3 O n N..X@X@X(.<.Q Q Q Q Q Q Q Q Q D.XX@X+X^.Q 1 O E Z.A.A.A.C.+.",
"' F 5.Z.A.A.b.3 o 8 N. XOXOX/.,.Y Y Y Y Y Y Y Y Y S. XOXoXJ.E < O E Z.A.A.Z.8.G ",
"] k -.C.A.A.b.3 o 3 :.R.].].k.I n n n n n n n n n 2.~.].'.g.V # O E Z.A.A.C.+.k ",
"' k -.C.A.A.b.3 X 4 %.U.Q.W.s. .S =.=.=.=.=.=...A &.Y.Q.W.y.Z & O E Z.A.A.C.O.j ",
"l d ;.C.A.A.b.3 % $.h.W.Q.Q.Y.h.R._.`.`.`.`.`.).j.U.W.Q.W.Y.s., O E Z.A.A.C.O.g ",
"r s <.Z.A.A.b.3 $ #.f.P.I.I.L.f.!.|.|.}.}.}.|.[.U.f.I.I.I.L.a., O E Z.A.A.C.+.p ",
"i N x.Z.A.A.b.3 . * / 0.u.u.#.0 $.a.w.#.#.0.a.t./ / q.u.w.@.: + o E Z.A.A.Z.,.y ",
"i N x.Z.A.B.,.1   o : 0.i.i.@.* | w.^ - - ~ 0.#.4 0 w.i.u./ @ . o I B.A.A.Z.<.M ",
"d J c.Z.A.1.V @   o , d.E.E.e.9 &.L.} - - ~ p.s.e  .L.E.I.$.@ . . 5 x.A.A.Z.6.M ",
"N ! n.Z.A.,.9 @   o 0 f.Q.W.y.w *.Y.p.} ( q.P.h.Z X.Y.Q.W.$.@ . . 2 x.A.A.Z.,.f ",
"K x.Z.Z.A.,.9 @   o 0 f.Q.W.y.w &.Y.Y.I.I.Y.W.h.Z X.Y.Q.W.$.@ . . 2 x.A.A.C.+.h ",
"G 8.Z.A.A.,.9 @   o 0 f.Q.W.y.w  .e.r.r.r.r.r.&.w X.Y.Q.W.$.@ . . 2 x.A.A.C.O.j ",
"k O.v.Z.A.,.9 @ . o 0 f.Q.W.y.7 7 7 7 7 7 7 7 7 6 X.Y.Q.W.$.@ . X 4 x.A.A.C.O.h ",
"{ ` O.m.Z.,.w 4 & o : f.Q.W.y.7 6 6 6 6 6 6 6 6 6 X.Y.Q.W.#.+ @ * 9 x.A.A.C.-.x ",
"H.[ k -.C.1.A Z 9 @ ; s.T.T.r.w 6 6 6 6 6 6 6 6 6 X.U.T.Y.@.O * w A x.A.A.Z.x.K ",
"H.[ k P B.M.1.U w 4 q %.e.e.X.w w w w w w w w w w  .&.e.*.| 4 9 A :.B.A.Z.Z.C.,.",
"G.] g C x.Z.C.,.S S A Z Z Z Z Z Z Z Z Z Z Z Z Z Z Z Z Z Z A S S =.x.A.A.A.Z.M.,.",
"] z p C x.Z.Z.M.x.x.,.S Z Z Z Z Z Z Z Z Z Z Z Z Z Z Z Z Z :.x.x.x.B.A.A.A.Z.5.M ",
"z p b T c.Z.A.A.A.A.M.U Z Z Z Z Z Z Z Z Z Z Z Z Z Z Z Z A ,.Z.A.A.A.A.A.A.C.+.h ",
"j a B W c.Z.A.A.A.A.Z.Z.Z.Z.Z.Z.Z.Z.Z.Z.Z.Z.Z.Z.Z.Z.Z.Z.Z.Z.A.A.A.A.A.A.Z.b.G g ",
"_ k f T <.B.Z.Z.A.A.A.A.A.A.A.A.A.Z.Z.Z.Z.Z.Z.A.A.A.A.A.A.Z.Z.Z.Z.Z.Z.Z.b.;.f g ",
"F._ g f C -.8.B.Z.Z.Z.Z.Z.Z.Z.Z.C.v.7.4.4.7.m.Z.A.Z.Z.Z.C.v.7.4.4.7.v.b.;.f i l ",
"H.[ l i i p F ,.b.v.7.4.7.v.8.7.3.H k h h k O.v.C.v.7.4.3.H k h h k H L f z _ ] ",
"H.{ _ ' ' ) k D -.G p i p o.G p i j ) ' ' ) k O.4.H p i i j ) ' ' ) j i l _ G.H."
};
