/* XPM */
static char *_edcbfb09f1e4afb948fc5cd45587ebeptDHMpDU3zNkCL6R[] = {
/* columns rows colors chars-per-pixel */
"40 40 147 2 ",
"   c #383E2B",
".  c #432B1D",
"X  c #472F20",
"o  c #482F21",
"O  c #4B3223",
"+  c #523726",
"@  c #543827",
"#  c #563A28",
"$  c #593C2A",
"%  c #1E4530",
"&  c #1E4B32",
"*  c #27412C",
"=  c #2C422E",
"-  c #32452F",
";  c #3D442F",
":  c #294530",
">  c #244C33",
",  c #2D4D34",
"<  c #354630",
"1  c #384731",
"2  c #334E35",
"3  c #3C4A33",
"4  c #255336",
"5  c #2A5237",
"6  c #265538",
"7  c #2C5439",
"8  c #265A3A",
"9  c #295C3C",
"0  c #325136",
"q  c #3D5036",
"w  c #37573B",
"e  c #39563B",
"r  c #27613E",
"t  c #28643F",
"y  c #45432D",
"u  c #5E412D",
"i  c #434430",
"p  c #444C35",
"a  c #4D4C34",
"s  c #544730",
"d  c #534D35",
"f  c #465037",
"g  c #445339",
"h  c #4A553D",
"j  c #4B583F",
"k  c #5A5037",
"l  c #555239",
"z  c #5D563D",
"x  c #5A583F",
"c  c #62422E",
"v  c #69462F",
"b  c #654531",
"n  c #694731",
"m  c #654A36",
"M  c #6E4B34",
"N  c #6D4E39",
"B  c #714D35",
"V  c #744F38",
"C  c #655037",
"Z  c #6E5035",
"A  c #63573E",
"S  c #6D5239",
"D  c #715037",
"F  c #74523A",
"G  c #79563E",
"H  c #76593D",
"J  c #2C6642",
"K  c #2E6B44",
"L  c #346443",
"P  c #316E47",
"I  c #3A6948",
"U  c #34734A",
"Y  c #38794F",
"T  c #3B7E51",
"R  c #4E5840",
"E  c #555A41",
"W  c #5A5A41",
"Q  c #645D43",
"!  c #6B5C42",
"~  c #795740",
"^  c #735B41",
"/  c #7C5D42",
"(  c #696147",
")  c #6F6349",
"_  c #736045",
"`  c #7C6145",
"'  c #716449",
"]  c #7C6549",
"[  c #7F694E",
"{  c #805A3F",
"}  c #815E44",
"|  c #846145",
" . c #8B6345",
".. c #866349",
"X. c #8D6749",
"o. c #826B4F",
"O. c #8C6A4D",
"+. c #906648",
"@. c #916B4C",
"#. c #956B4C",
"$. c #986E4E",
"%. c #92734D",
"&. c #9C714F",
"*. c #846C50",
"=. c #8E6D51",
"-. c #926E51",
";. c #956F52",
":. c #946F54",
">. c #9B6F50",
",. c #8E7053",
"<. c #917154",
"1. c #957154",
"2. c #977254",
"3. c #9E7352",
"4. c #997355",
"5. c #9B7456",
"6. c #9C7557",
"7. c #9E7850",
"8. c #9D7658",
"9. c #977D5C",
"0. c #A07453",
"q. c #A57753",
"w. c #A17655",
"e. c #A57853",
"r. c #A37857",
"t. c #A67854",
"y. c #A87A56",
"u. c #3E8355",
"i. c #408556",
"p. c #458C5B",
"a. c #4C9562",
"s. c #A9875E",
"d. c #A88D68",
"f. c #B79161",
"g. c #C29E6B",
"h. c #D2AC74",
"j. c #DAB277",
"k. c #D8B37D",
"l. c #CBB88E",
"z. c #D8BE8D",
"x. c #E9C282",
"c. c #EECC92",
"v. c #FFD792",
"b. c #FFD996",
"n. c #FFDB99",
"m. c #EED9A5",
"M. c #FFE3A7",
/* pixels */
"J r r 8 , - , 6 6 > = < , 6 6 , 5 9 U u.u.U 9 > > 6 2 3 0 6 > < d d 0 6 6 & 6 T ",
"P 6 6 , y C z p 3 3 d C d 3 3 d l w 9 9 9 9 , < 1 3 z ^ z h h A / / z p 3 : 6 U ",
"U 4 * y S X.-.../ / / } / / / } ..Q h 3 3 3 d S H / O.2.2.<.<.2.4.4.<...^ l 0 9 ",
"U 4   m X.4.6.5.4.4.4.4.4.4.4.4.5.2.-.../ / / | O.4.5.6.8.8.8.8.8.8.6.5.2...l 0 ",
"t > i / 4.6.8.8.8.8.8.8.8.8.8.8.8.8.6.5.4.4.4.4.5.6.8.8.8.8.8.8.8.8.8.8.6.2.! 3 ",
"9 2 z O.4...........................................................X.8.8.2.W 5 ",
"2 k ..4.:.} X. . . . . . . . . . . . . . . . . . . . . . . . . . .X.X.8.8.<.E 5 ",
"a H @.5.;.#.y.t.t.t.t.t.t.t.t.t.t.t.t.t.t.t.t.t.t.t.t.t.t.t.t.t.t.t.t.8.8.2.Q 0 ",
"d | 4.6.;.#.y.t.q.e.e.e.e.e.e.e.e.e.e.e.e.e.e.q.e.e.e.e.e.e.e.q.q.t.t.8.8.4.` p ",
"d ..5.8.;.+.3.&.$.$.$.$.$.$.$.$.$.$.$.$.$.$.$.$.$.$.$.$.$.$.$.$.$.&.0.8.8.4._ g ",
"d ..5.8.-.G { F M M M M M M M M M M M M M M M M M M M M M M M M M G | 8.8.2.W I ",
"d ..5.8.-.n b + X O O O O O O O O O O O O O O O O O O O O O O O O $ F 8.8.<.E L ",
"d ..5.8.-.G F # X + $ $ $ O X O # $ $ $ $ $ $ $ + X O @ $ $ # O o b | 8.8.<.E 7 ",
"d ..5.8.;.#.X.u O c M M M $ O @ b M M M M M M M u O + b M M n # O F 3.8.8.2.E 5 ",
"d ..5.8.;.3.+.u O c V V V b $ u M V V V V V V V c O @ n F F M $ O F w.8.8.2.( e ",
"p ` 4.8.;.$.X.u O c V V V M n n M V V V V V V V c O + b V V M $ O F 3.8.8.6.,.E ",
"7 W =.6.;.$.X.u O c V V V V V V V V M B B M V M c + $ n V V M $ O F 3.8.8.8.<.W ",
"P g ] 4.;.$.X.u O c V V M M M M V V M B B V M M n c b M V V M $ O F 3.8.8.5.[ h ",
"U 7 Q 2.;.$.X.u O c V V M M B M B V M M V V V V M B M M M M n # O F 3.8.8.2.W 7 ",
"P 7 Q 2.;.$.X.u O c V V M M V V V M M M V V V V M M n v v v c + O F 3.8.8.<.E 6 ",
"8 , ! 2.;.$.X.u O c V V V V V V M B M M M M V M M n n n n M v @ O F 3.8.8.<.E 4 ",
"% ; / 4.;.$.X.u O c V V V B V V V V M M M M V B n v ~ 9.d.s.7.Z O D 3.8.8.2.W , ",
"> a ..5.;.$.X.u O c V V V B M M V V V B M B M M v c =.l.m.c.j.X.O V 3.8.8.4.^ ; ",
"> a ..5.;.#.X.u O c V V B B M M V V V V M M M M v c <.z.M.n.x.%.O V 3.8.8.4./ p ",
"2 k X.5.;.$.X.u O c V V B V M M M M B V V V M M v c @.k.b.v.x.%.O V 3.8.8.4.` p ",
"a H @.5.;.$.X.u O c V V V V M M M M M V V V M M n c | f.h.h.g.` O V 3.8.8.4.^ 3 ",
"l ..4.6.;.$.X.u O c V V V V V V V B V V V V V M M v M H / H H u O F 3.8.8.2.W 5 ",
"h [ 5.8.;.$.X.u O c V V V M M M B V B M M B V V M M c O . . . . o F 3.8.8.<.E 6 ",
"7 E o.5.;.$.X.u O c V V M v $ c M V B V M M M B M M n u $ $ $ O O F 3.8.8.<.E 5 ",
"T L E *.-.$.X.u O c V V M $ O @ n V V V B M M M V V V M M V M # O F 3.8.8.2.Q 0 ",
"a.Y 7 Q =.$.X.u O c V V V $ O @ n V V V M M B M V V V V V F M $ O F 3.8.8.5...l ",
"a.Y 7 x O.$.X.u O c V V V $ O @ n V B V M V V V V V V V V V M $ O F 3.8.8.6.2.~ ",
"p.U 4 d | >.+.c O c V V V c O # M V V V V V V V M b n M V V M $ O F w.8.8.5.=.^ ",
"U 9 , d | 3.@.b O b F F F c O $ M F F V V V F V b # $ M F F V $ O F r.8.8.4._ p ",
"9 , y m | O.X.N b F G ~ G N m N F G G G G G G G N b m F ~ ~ F N b ~ -.8.8.<.W 5 ",
"6 - s F X.4.8.8.8.8.8.8.8.8.8.8.8.8.8.8.8.8.8.8.8.8.8.8.8.8.8.8.8.8.8.8.5.O.h 4 ",
"K 7 3 C / -.4.6.8.8.8.8.8.8.8.8.8.5.5.5.5.5.5.8.8.8.8.8.8.5.5.5.5.5.5.5.O.! 3 4 ",
"u.K 4 3 d Q ] -.5.5.5.5.5.5.5.5.2.o.' ) ) ' *.5.8.5.5.5.2.o.' ) ) ' o.O.! 3 > 8 ",
"a.Y 8 > > , g ^ O.o.' ) ' o.[ ' ( j 7 5 5 7 E o.<.o.' ) ( j 7 5 5 7 j z q 9 K U ",
"a.T K P P J 7 f Q h , > , R h , > 6 J P P J 7 E ) j , > > 6 J P P J 6 > 8 K i.a."
};
