/* XPM */
static char *e073216b65774239a944827842cff6a05OKErpqlYQkEBDtr[] = {
/* columns rows colors chars-per-pixel */
"40 40 211 2 ",
"   c #2D2728",
".  c #342A26",
"X  c #382E2C",
"o  c #2D312B",
"O  c #29372E",
"+  c #3D312B",
"@  c #38362B",
"#  c #2E2B31",
"$  c #2A3736",
"%  c #2A3D3D",
"&  c #383737",
"*  c #3C3536",
"=  c #34333C",
"-  c #3B363A",
";  c #353C3C",
":  c #45382E",
">  c #423632",
",  c #443934",
"<  c #4D3D33",
"1  c #433D3C",
"2  c #4B3F3C",
"3  c #523E31",
"4  c #1E4831",
"5  c #2A422D",
"6  c #37442F",
"7  c #284537",
"8  c #244C33",
"9  c #2D4C34",
"0  c #354630",
"q  c #334E35",
"w  c #3C4A33",
"e  c #3A4938",
"r  c #255336",
"t  c #2A5237",
"y  c #265538",
"u  c #2C5439",
"i  c #265A3A",
"p  c #295C3C",
"a  c #325136",
"s  c #3A5439",
"d  c #27623E",
"f  c #45432D",
"g  c #434430",
"h  c #444C35",
"j  c #4D4C34",
"k  c #4A403C",
"l  c #544332",
"z  c #5C4737",
"x  c #534D35",
"c  c #54443B",
"v  c #5E493C",
"b  c #465037",
"n  c #44533B",
"m  c #4A553D",
"M  c #4B583F",
"N  c #5A5037",
"B  c #555239",
"V  c #5D563D",
"C  c #5A583F",
"Z  c #674D38",
"A  c #624C3C",
"S  c #655037",
"D  c #65543F",
"F  c #6B513C",
"G  c #73553B",
"H  c #76593E",
"J  c #2F3744",
"K  c #363A47",
"L  c #3B3A44",
"P  c #333A4B",
"I  c #393E52",
"U  c #453F43",
"Y  c #2C4A45",
"T  c #384647",
"R  c #3B4C4D",
"E  c #2D5645",
"W  c #35564B",
"Q  c #3C4155",
"!  c #394854",
"~  c #3C445C",
"^  c #3A5353",
"/  c #395756",
"(  c #3E5B5E",
")  c #2C6642",
"_  c #2E6B44",
"`  c #356344",
"'  c #316E47",
"]  c #3B684A",
"[  c #34734A",
"{  c #38794F",
"}  c #3C6656",
"|  c #3B7E51",
" . c #3E4761",
".. c #434343",
"X. c #464746",
"o. c #4B4242",
"O. c #44434B",
"+. c #524640",
"@. c #5C4E47",
"#. c #555A41",
"$. c #5A5A41",
"%. c #444B53",
"&. c #484A56",
"*. c #44495B",
"=. c #415B56",
"-. c #4E515E",
";. c #415A5D",
":. c #5A5559",
">. c #645045",
",. c #6B5343",
"<. c #645D43",
"1. c #6B5C42",
"2. c #725642",
"3. c #745A43",
"4. c #7C5D44",
"5. c #755B49",
"6. c #7B5E48",
"7. c #645854",
"8. c #42675C",
"9. c #43745A",
"0. c #696147",
"q. c #6F6349",
"w. c #736045",
"e. c #7C6046",
"r. c #716449",
"t. c #7D634A",
"y. c #7F694E",
"u. c #7F6452",
"i. c #444D65",
"p. c #464E66",
"a. c #475767",
"s. c #46516B",
"d. c #4A546D",
"f. c #565A67",
"g. c #4B5671",
"h. c #4E5974",
"j. c #535C75",
"k. c #545F7B",
"l. c #615F67",
"z. c #456565",
"x. c #466967",
"c. c #4A666B",
"v. c #4A6C6B",
"b. c #487864",
"n. c #4E6473",
"m. c #526675",
"M. c #56637D",
"N. c #5A647C",
"B. c #566A7D",
"V. c #4F7072",
"C. c #557777",
"Z. c #60677A",
"A. c #646A7C",
"S. c #815F43",
"D. c #836447",
"F. c #85654B",
"G. c #89664A",
"H. c #826A4F",
"J. c #8C6A4E",
"K. c #906B4D",
"L. c #846752",
"P. c #856952",
"I. c #8D6B51",
"U. c #926E52",
"Y. c #946F53",
"T. c #8E7053",
"R. c #947154",
"E. c #967154",
"W. c #997255",
"Q. c #9B7456",
"!. c #9C7557",
"~. c #9D7658",
"^. c #3E8255",
"/. c #45865A",
"(. c #4D8665",
"). c #51826F",
"_. c #4C9562",
"`. c #598978",
"'. c #5A6582",
"]. c #5D6C85",
"[. c #5C7183",
"{. c #5E7A84",
"}. c #626C85",
"|. c #696F83",
" X c #616D8A",
".X c #657787",
"XX c #65718D",
"oX c #6A748E",
"OX c #717A8E",
"+X c #667291",
"@X c #697594",
"#X c #6D7A95",
"$X c #6D7A99",
"%X c #717C96",
"&X c #717E9B",
"*X c #68868A",
"=X c #6C8591",
"-X c #75819D",
";X c #79859E",
":X c #788A9A",
">X c #7683A1",
",X c #7986A2",
"<X c #7D8AA4",
"1X c #7E91A0",
"2X c #818DA6",
"3X c #838FA8",
"4X c #8390A7",
"5X c #8591AA",
"6X c #8A95AD",
"7X c #8D98AF",
"8X c #8E99B0",
/* pixels */
") d d i 9 0 9 y y 8 5 0 9 y y 9 t p [ ^.^.[ p 8 8 y q w a y 8 0 x x a y y 4 y | ",
"' y y 9 f S V h w w x S x w w x B s p p p p 9 0 0 w V 3.V m m D 4.4.V h w 5 y [ ",
"[ r 5 f F G.U.F.4.4.4.S.4.4.4.S.F.<.m w w w x F H 4.J.R.R.R.R.R.W.W.R.F.3.B a p ",
"[ r @ Z G.W.!.Q.W.W.W.W.R.R.U.U.U.I.J.e.H H H 4.D.J.U.U.Y.Y.R.R.W.Q.!.Q.R.D.B a ",
"d 8 g 4.W.!.~.~.~.~.~.~.~.~.!.!.Q.W.W.R.U.U.U.U.Y.R.W.W.Q.Q.!.~.~.~.~.~.!.R.1.w ",
"p q V J.Q.~.~.~.~.~.~.~.~.~.~.!.Q.W.Y.U.J.J.J.J.J.I.U.W.W.Q.!.~.~.~.~.~.~.R.$.t ",
"q N D.W.!.~.~.~.~.~.~.~.~.~.!.W.R.I.F.6.5.5.5.5.5.5.t.F.J.U.R.Q.!.~.~.~.~.R.#.t ",
"j H K.Q.~.~.~.~.~.~.~.~.~.~.Q.Y.J.3.v c o.o.o.o.U 2 c v 2.F.J.R.W.!.~.~.~.R.<.a ",
"x D.W.!.~.~.~.~.~.~.~.~.!.W.R.J.6.A , = J P P J J = * > c ,.4.F.U.R.Q.!.~.W.e.h ",
"x F.Q.~.~.~.~.~.~.~.~.~.Q.U.J.3.v o.O.*.d.h.h.d.p.*.I L 1 2 c A 3.J.R.!.~.W.w.n ",
"x F.Q.~.~.~.~.~.~.~.~.~.W.J.4.v , O.p.k.XX@X@XXX'.j.p.Q P = - , v 6.I.Q.~.R.$.] ",
"x F.Q.~.~.~.~.~.~.~.~.Q.R.4.A c U -.N.oX-X,X,X-X#X XN.g.p.Q L - 2 A 3.R.~.R.#.` ",
"x F.Q.~.~.~.~.~.~.~.!.Q.I.F < U *.N.%X<X5X6X6X5X<X-X@X XM.g.*.K - , z U.~.R.#.u ",
"x F.Q.~.~.~.~.~.~.~.W.U.F.A , O.a.}.-X2X6X6X7X6X5X<X-X@X].k.s.Q K * < U.~.R.#.y ",
"x F.Q.~.~.~.~.~.~.Q.R.F.3.c > &.j.XX;X3X5X6X7X7X6X5X,X&X+X'.h.p.I = * I.~.R.0.s ",
"h e.W.~.~.~.~.~.W.U.F.2.v o.O.f.}.#X;X<X2X5X6X7X6X6X<X&X@X].k.g.*.K - I.~.!.T.#.",
"u $.I.!.~.~.~.!.Y.F.2.c , X.-.Z.%X-X-X>X>X<X5X6X6X6X<X&X@X X'.k.d.Q L P.~.~.R.$.",
"' n t.W.~.~.W.Y.F.3.v k L &.j.|.-X-X-X>X>X,X3X5X5X5X,X&X#X+X X}.k.p.O.P.~.Q.y.m ",
"[ u <.R.~.~.U.F.3.v k X.&.f.N.XX%X-X>X,X,X<X3X5X3X2X-X#X#X&X%X#X}.j.*.P.~.R.$.u ",
"' u <.R.~.!.I.6.>.+.O.-.j.N.}.XX#X&X,X,X<X<X3X2X<X;X#XXX@X%X%X#XXXk.p.P.~.R.#.y ",
"i 9 1.R.~.!.P.,.@.:.f.A.oXoX+X+X+X$X>X<X4X5X3X<X-X@X X'.'.}. X XM.g.Q P.~.R.#.r ",
"4 6 4.W.~.Q.L.>.:.f.A.%X<X-X$X@X+X$X,X2X6X6X5X,X#X XM.h.j.k.k.k.g.p.Q P.~.R.$.9 ",
"8 j F.Q.~.Q.L.7.:.A.OX;X2X,X&X$X$X-X<X5X6X6X5X<X#X XM.g.g.h.h.h.s. .I P.~.W.3.6 ",
"8 j F.Q.~.Q.P.7.l.|.;X<X2X,X&X&X&X,X3X6X7X7X5X<X&XXX'.g.g.d.d.g.p.~ P L.!.W.6.h ",
"q N G.Q.~.Q.P.7.f.|.%X-X,X$X@X@X$X,X5X6X7X7X6X5X,X%X}.k.j.h.h.h.s.~ P L.~.W.e.h ",
"j H K.Q.~.Q.L.7.f.Z.@X#X$X+X XXX@X;X6X7X7X7X7X6X2X;XoX'.M.M.k.k.d.~ J L.~.W.3.w ",
"B F.W.!.~.Q.u.@.&.f.M.[.{.[.[.[..X-X4X6X7X7X7X6X2X;XoX'.M.m.n.h.a.! J L.~.R.$.t ",
"m y.Q.~.~.Q.t.+...%.;.c.V.V.V.C.{.=X<X5X7X8X7X6X2X-XXXB.m.v.z.;.^ Y % L.~.R.#.y ",
"u #.H.Q.~.Q.F.v k T R ;.z.z.x.v.V.{.#X;X1X1X:X:X-X@X].m.c.z.} / W Y % L.~.R.#.t ",
"| ` #.P.Q.Q.F.,.c 1 ; ! ( ( ( 8.z.V.]..X=X*X*X.X[.].M.n.z.} W E Y 7 $ F.~.R.<.a ",
"_.{ u <.R.!.I.4.D c 2 X.%.R R ^ ^ a.m.C.`.`.`.C.B.'.h.d.( / E E 7 $ o F.~.Q.F.B ",
"_.{ u C U.!.R.I.F.3.,.@.c 1 & ; T ^ c.C.`.`.`.C.B.k.g.p.! ! Y 7 7 O o J.~.!.R.3.",
"/.[ r x F.Q.Q.W.R.J.F.2.A < + X # T =.9./.(.).C.m.h.s.~ Q P % $ O o X J.~.Q.I.3.",
"[ p 9 x F.Q.!.Q.W.R.U.G.6.F l > X & ; e W ] 9.b.v.a.p.Q P = $ o o X : I.~.W.w.h ",
"p 9 f Z G.Q.!.Q.W.R.R.Y.I.4.Z 3 + . . o O 9 ` } 8.;.! P J #     . + < U.~.R.$.t ",
"y 0 l G G.Q.Q.U.I.J.G.F.F.4.2.F z l < : @ & e n X.....- * + + + : 3 A U.Q.J.m r ",
"_ u w S 4.U.W.!.~.~.~.~.~.~.~.~.~.Q.Q.Q.Q.Q.Q.~.~.~.!.~.~.Q.Q.Q.Q.Q.Q.Q.J.1.w r ",
"^._ r w x <.t.U.Q.Q.Q.Q.Q.Q.Q.Q.R.H.r.q.q.r.P.Q.~.Q.Q.Q.R.H.r.q.q.r.J.J.1.w 8 i ",
"_.{ i 8 8 9 n 3.J.H.r.q.r.H.y.r.0.M u t t u #.H.R.H.r.q.0.M u t t u M V w p _ [ ",
"_.| _ ' ' ) u b <.m 9 8 9 #.m 9 8 y ) ' ' ) u #.q.M 9 8 8 y ) ' ' ) y 8 i _ /._."
};
